<svg width="810" height="703" viewBox="0 0 810 703" fill="none" xmlns="http://www.w3.org/2000/svg">
<g id="Layer 3" filter="url(#filter0_d_3_45)">
<g id="Layer 1">
<g id="triangle-group">
<path id="Vector" d="M186.126 536.768L95.0878 694.496H714.86L623.822 536.768H186.126Z" fill="white"/>
<path id="Vector_2" d="M404.974 157.728L313.935 0L4 536.768H186.127L404.974 157.728Z" fill="white"/>
<path id="Vector_3" d="M623.821 536.768H805.948L496.012 -9.15527e-05L404.974 157.728L623.821 536.768Z" fill="white"/>
</g>
<path id="circle-shape" d="M404.974 509.658C459.418 509.658 503.554 465.523 503.554 411.078C503.554 356.634 459.418 312.498 404.974 312.498C350.53 312.498 306.394 356.634 306.394 411.078C306.394 465.523 350.53 509.658 404.974 509.658Z" fill="white"/>
</g>
</g>
<defs>
<filter id="filter0_d_3_45" x="0" y="-9.15527e-05" width="809.948" height="702.496" filterUnits="userSpaceOnUse" color-interpolation-filters="sRGB">
<feFlood flood-opacity="0" result="BackgroundImageFix"/>
<feColorMatrix in="SourceAlpha" type="matrix" values="0 0 0 0 0 0 0 0 0 0 0 0 0 0 0 0 0 0 127 0" result="hardAlpha"/>
<feOffset dy="4"/>
<feGaussianBlur stdDeviation="2"/>
<feComposite in2="hardAlpha" operator="out"/>
<feColorMatrix type="matrix" values="0 0 0 0 0 0 0 0 0 0 0 0 0 0 0 0 0 0 0.25 0"/>
<feBlend mode="normal" in2="BackgroundImageFix" result="effect1_dropShadow_3_45"/>
<feBlend mode="normal" in="SourceGraphic" in2="effect1_dropShadow_3_45" result="shape"/>
</filter>
</defs>
</svg>
